<svg xmlns="http://www.w3.org/2000/svg" xmlns:xlink="http://www.w3.org/1999/xlink" viewBox="0 0 100 100" version="1.1" x="0px" y="0px"><title>019 K</title><desc>Created with Sketch.</desc><g stroke="none" stroke-width="1" fill="none" fill-rule="evenodd"><g><circle fill="#000000" cx="50" cy="50" r="8"></circle><circle fill="#000000" cx="50.4062151" cy="18.0098479" r="2.5"></circle><circle fill="#000000" cx="30.5" cy="24.5" r="2.5"></circle><circle fill="#000000" cx="19.8303555" cy="59.6785526" r="2.5"></circle><circle fill="#000000" cx="22.5" cy="66.5" r="2.5"></circle><circle fill="#000000" cx="75.2511031" cy="70.0381955" r="2.5"></circle><circle fill="#000000" cx="79.4031258" cy="63.2637058" r="2.5"></circle><circle fill="#000000" cx="69.5" cy="75.5" r="2.5"></circle><circle fill="#000000" cx="81.5" cy="54.5" r="2.5"></circle><circle fill="#000000" cx="45.5" cy="10.5" r="2.5"></circle><circle fill="#000000" cx="60.5" cy="28.5" r="2.5"></circle><circle fill="#000000" cx="71.5" cy="39.5" r="2.5"></circle><circle fill="#000000" cx="29.5" cy="37.5" r="2.5"></circle><circle fill="#000000" cx="26.6409396" cy="44.6772647" r="2.5"></circle><circle fill="#000000" cx="34.8572238" cy="31.2532201" r="2.5"></circle><circle fill="#000000" cx="44.7572723" cy="73.2331468" r="2.5"></circle><circle fill="#000000" cx="52.8752204" cy="73.6667049" r="2.5"></circle><circle fill="#000000" cx="43.5" cy="26.5" r="2.5"></circle><circle fill="#000000" cx="58.5" cy="36.5" r="2.5"></circle><circle fill="#000000" cx="60.8170447" cy="61.8355929" r="2.5"></circle><circle stroke="#000000" stroke-width="0.25" cx="50" cy="50" r="32"></circle><circle stroke="#000000" stroke-width="0.25" cx="50" cy="50" r="40"></circle><circle stroke="#000000" stroke-width="0.25" cx="50" cy="50" r="24"></circle><circle stroke="#000000" stroke-width="0.25" cx="50" cy="50" r="16"></circle></g></g></svg>